<?xml version="1.0" encoding="utf-8"?>
<!-- Generator: Adobe Illustrator 22.1.0, SVG Export Plug-In . SVG Version: 6.00 Build 0)  -->
<svg version="1.1" id="Слой_1" xmlns="http://www.w3.org/2000/svg" xmlns:xlink="http://www.w3.org/1999/xlink" x="0px" y="0px"
	 viewBox="0 0 570 293" style="enable-background:new 0 0 570 293;" xml:space="preserve">
<style type="text/css">
	.st0{fill:url(#SVGID_1_);}
	.st1{fill:url(#SVGID_2_);}
	.st2{fill:url(#SVGID_3_);}
	.st3{fill:url(#SVGID_4_);}
	.st4{fill:url(#SVGID_5_);}
	.st5{fill:url(#SVGID_6_);}
	.st6{fill:url(#SVGID_7_);}
	.st7{fill:url(#SVGID_8_);}
	.st8{fill:url(#SVGID_9_);}
	.st9{fill:url(#SVGID_10_);}
</style>
<linearGradient id="SVGID_1_" gradientUnits="userSpaceOnUse" x1="40.5881" y1="2.7792" x2="40.5881" y2="298.7764">
	<stop  offset="0" style="stop-color:#04A2EA"/>
	<stop  offset="1" style="stop-color:#0287C5"/>
</linearGradient>
<path class="st0" d="M78.4,242.5c-4.7,3.6-14.2,8.3-26.4,11.3c-28.2,7-49.3-5.5-49.3-38.2c0-31.3,21.2-57.7,52.2-65.5
	c12.4-3.1,20.3-2.4,23.7-1.5l-3.1,11.3c-4.9-1.2-11.9-1.2-20.2,0.9c-23.4,5.8-39,24.7-39,50.9c0,24.4,14.1,36.6,38.4,30.6
	c7.9-2,15.9-5.6,21-9.4L78.4,242.5z"/>
<linearGradient id="SVGID_2_" gradientUnits="userSpaceOnUse" x1="317.4941" y1="2.7792" x2="317.4941" y2="298.7764">
	<stop  offset="0" style="stop-color:#04A2EA"/>
	<stop  offset="1" style="stop-color:#0287C5"/>
</linearGradient>
<path class="st1" d="M99.3,141.8l12.9-3.2v137.1l423.4-103.5l0,0L99.3,289.7V141.8z"/>
<linearGradient id="SVGID_3_" gradientUnits="userSpaceOnUse" x1="164.6584" y1="2.7792" x2="164.6584" y2="298.7764">
	<stop  offset="0" style="stop-color:#04A2EA"/>
	<stop  offset="1" style="stop-color:#0287C5"/>
</linearGradient>
<path class="st2" d="M188.3,171.9l-38.8,9.7v36l43.3-10.8v10.8l-56.2,14v-99.9l53.9-13.4v10.8l-41.1,10.2V171l38.8-9.7V171.9z"/>
<linearGradient id="SVGID_4_" gradientUnits="userSpaceOnUse" x1="243.7164" y1="2.7792" x2="243.7164" y2="298.7764">
	<stop  offset="0" style="stop-color:#04A2EA"/>
	<stop  offset="1" style="stop-color:#0287C5"/>
</linearGradient>
<path class="st3" d="M225.6,178l-10.4,34l-13.3,3.3L235.9,107l15.6-3.9l34.1,91.4l-13.8,3.4l-10.7-28.8L225.6,178z M258.4,159.8
	l-9.8-26.3c-2.2-6-3.7-11.5-5.2-16.9l-0.3,0.1c-1.5,6.3-3.1,12.8-5,19.3l-9.8,31.3L258.4,159.8z"/>
<linearGradient id="SVGID_5_" gradientUnits="userSpaceOnUse" x1="337.6721" y1="2.7792" x2="337.6721" y2="298.7764">
	<stop  offset="0" style="stop-color:#04A2EA"/>
	<stop  offset="1" style="stop-color:#0287C5"/>
</linearGradient>
<path class="st4" d="M300.2,190.9V91l14.1-3.5l32,42.5c7.4,9.9,13.2,18.9,17.9,28l0.3-0.2c-1.2-13-1.5-25.1-1.5-40.7V75.3l12.2-3
	v99.9l-13,3.2l-31.7-42.8c-7-9.4-13.6-19.1-18.7-28.7l-0.4,0.3c0.7,12.4,1,24.3,1,40.9v42.7L300.2,190.9z"/>
<linearGradient id="SVGID_6_" gradientUnits="userSpaceOnUse" x1="425.7692" y1="2.7792" x2="425.7692" y2="298.7764">
	<stop  offset="0" style="stop-color:#04A2EA"/>
	<stop  offset="1" style="stop-color:#0287C5"/>
</linearGradient>
<path class="st5" d="M449.4,106.8l-38.8,9.7v36l43.3-10.8v10.8l-56.2,14V66.7l53.9-13.4v10.8l-41.1,10.2v31.6l38.8-9.7V106.8z"/>
<linearGradient id="SVGID_7_" gradientUnits="userSpaceOnUse" x1="503.125" y1="2.7792" x2="503.125" y2="298.7764">
	<stop  offset="0" style="stop-color:#04A2EA"/>
	<stop  offset="1" style="stop-color:#0287C5"/>
</linearGradient>
<path class="st6" d="M470.6,49.8c6.5-3,15.9-6,24.7-8.2c13.8-3.4,22.7-3.1,28.9,0.9c5,3.2,7.9,9.3,7.9,17c0,13.2-8.3,24-18.8,30.2
	v0.4c7.7,0.7,12.3,6.7,14.7,16.5c3.3,13.1,5.6,22.2,7.7,25.5l-13.3,3.3c-1.6-2.4-3.9-10.5-6.7-22.2c-3-13-8.3-16.9-20-14.4l-12.2,3
	v43.3l-12.9,3.2V49.8z M483.5,92.1l13.2-3.3c13.8-3.4,22.5-13.2,22.5-24.6c0-12.9-9.3-16.2-23-12.9c-6.2,1.6-10.7,3.3-12.7,4.4V92.1
	z"/>
<linearGradient id="SVGID_8_" gradientUnits="userSpaceOnUse" x1="543.859" y1="2.7792" x2="543.859" y2="298.7764">
	<stop  offset="0" style="stop-color:#04A2EA"/>
	<stop  offset="1" style="stop-color:#0287C5"/>
</linearGradient>
<circle class="st7" cx="543.9" cy="25.6" r="8.2"/>
<linearGradient id="SVGID_9_" gradientUnits="userSpaceOnUse" x1="558.852" y1="2.7792" x2="558.852" y2="298.7764">
	<stop  offset="0" style="stop-color:#04A2EA"/>
	<stop  offset="1" style="stop-color:#0287C5"/>
</linearGradient>
<path class="st8" d="M552,12.4c1,3.8,5,6.1,8.8,5c3.8-1,6.1-5,5-8.8c-1-3.8-5-6.1-8.8-5S550.9,8.6,552,12.4z"/>
<linearGradient id="SVGID_10_" gradientUnits="userSpaceOnUse" x1="560.4894" y1="2.7792" x2="560.4894" y2="298.7764">
	<stop  offset="0" style="stop-color:#04A2EA"/>
	<stop  offset="1" style="stop-color:#0287C5"/>
</linearGradient>
<path class="st9" d="M557.8,27.6c0.9,3.4,6.3,2,5.3-1.4C562.2,22.7,556.9,24.1,557.8,27.6z"/>
</svg>
