<?xml version="1.0" encoding="utf-8"?><svg xmlns="http://www.w3.org/2000/svg" xmlns:xlink="http://www.w3.org/1999/xlink"><symbol viewBox="0 0 512 512" id="facebook" xmlns="http://www.w3.org/2000/svg"><path d="M222.9 388h51.5c4.4 0 8-3.6 8-8V264.1h26.8c4.1 0 7.5-3.1 8-7.2l4.5-43.8c.2-2.3-.5-4.5-2-6.2-1.5-1.7-3.7-2.6-5.9-2.6h-31.3v-17.7c0-3.7 1.2-3.9 2.9-3.9H313c4.4 0 8-3.6 8-8v-42.5c0-4.4-3.6-8-8-8l-38.2-.2c-26.8 0-41 11.8-48.3 21.6-10.1 13.8-11.7 29.9-11.7 38.3v20.3h-16.5c-4.4 0-8 3.6-8 8V256c0 4.4 3.6 8 8 8h16.5v116c.1 4.4 3.7 8 8.1 8zm-16.5-139.9v-27.8h16.5c4.4 0 8-3.6 8-8V184c0-5.2.8-18.4 8.5-28.9 7.4-10 19.3-15.1 35.4-15.1l30.2.1v26.5h-19.7c-9.4 0-18.9 6.2-18.9 19.9v25.7c0 4.4 3.6 8 8 8h30.4l-2.9 27.8h-27.5c-4.4 0-8 3.6-8 8v116h-35.5V256.1c0-4.4-3.6-8-8-8h-16.5z"/><path d="M437 75C388.7 26.6 324.4 0 256 0S123.3 26.6 75 75 0 187.6 0 256s26.6 132.7 75 181c48.4 48.3 112.6 75 181 75s132.7-26.6 181-75c48.4-48.3 75-112.6 75-181s-26.6-132.7-75-181zm-11.3 350.7C380.4 471 320.1 496 256 496s-124.4-25-169.7-70.3C41 380.4 16 320.1 16 256S41 131.6 86.3 86.3C131.6 41 191.9 16 256 16s124.4 25 169.7 70.3C471 131.6 496 191.9 496 256s-25 124.4-70.3 169.7z"/><path d="M430 115c-2.8-3.4-7.8-4-11.3-1.2-3.4 2.8-4 7.8-1.2 11.3 29.9 36.9 46.4 83.4 46.4 131 0 55.6-21.6 107.8-60.9 147.1-39.2 39.2-91.4 60.8-147 60.8-51.3 0-100.5-18.8-138.7-53-3.3-2.9-8.3-2.7-11.3.6s-2.7 8.4.6 11.3c41.1 36.8 94.1 57 149.3 57 59.8 0 116.1-23.3 158.4-65.6C456.7 372.1 480 315.8 480 256c0-51.2-17.7-101.3-50-141zM48 256c0-114.7 93.3-208 208-208 51.3 0 100.5 18.8 138.7 53 3.3 2.9 8.4 2.7 11.3-.6 2.9-3.3 2.7-8.3-.6-11.3C364.2 52.3 311.2 32 256 32c-59.8 0-116.1 23.3-158.4 65.6C55.3 139.9 32 196.2 32 256c0 51.2 17.7 101.3 50 141 1.6 1.9 3.9 3 6.2 3 1.8 0 3.6-.6 5-1.8 3.4-2.8 4-7.8 1.2-11.3C64.5 350.1 48 303.6 48 256z"/></symbol><symbol viewBox="0 0 409.6 409.6" id="instagram" xmlns="http://www.w3.org/2000/svg"><path d="M349.6 60C310.9 21.3 259.5 0 204.8 0S98.7 21.3 60 60C21.3 98.7 0 150.1 0 204.8c0 54.7 21.3 106.1 60 144.8 38.7 38.7 90.1 60 144.8 60 54.7 0 106.1-21.3 144.8-60 38.7-38.7 60-90.1 60-144.8 0-54.7-21.3-106.1-60-144.8zm-9 280.6c-36.3 36.3-84.5 56.2-135.8 56.2-51.3 0-99.5-20-135.8-56.2-36.3-36.3-56.2-84.5-56.2-135.8 0-51.3 20-99.5 56.2-135.8s84.5-56.2 135.8-56.2c51.3 0 99.5 20 135.8 56.2 36.3 36.3 56.2 84.5 56.2 135.8 0 51.3-20 99.5-56.2 135.8z"/><path d="M344 92c-2.2-2.7-6.3-3.2-9-.9-2.7 2.2-3.2 6.3-.9 9 23.9 29.5 37.1 66.7 37.1 104.8 0 44.5-17.3 86.2-48.7 117.7s-73.2 48.7-117.7 48.7c-41 0-80.4-15-110.9-42.4-2.6-2.4-6.7-2.1-9 .5-2.4 2.6-2.1 6.7.5 9 32.9 29.4 75.3 45.6 119.5 45.6 47.9 0 92.9-18.6 126.7-52.5 33.8-33.8 52.5-78.8 52.5-126.7-.1-41-14.3-81.1-40.1-112.8zM38.4 204.8C38.4 113 113 38.4 204.8 38.4c41 0 80.4 15 110.9 42.4 2.6 2.4 6.7 2.1 9-.5 2.4-2.6 2.1-6.7-.5-9-32.8-29.5-75.2-45.7-119.4-45.7-47.9 0-92.9 18.6-126.7 52.5-33.8 33.8-52.5 78.8-52.5 126.7 0 41 14.2 81.1 40 112.8 1.3 1.6 3.1 2.4 5 2.4 1.4 0 2.8-.5 4-1.4 2.7-2.2 3.2-6.3.9-9-23.9-29.5-37.1-66.7-37.1-104.8z"/><path d="M258.6 102.1H151.4c-27.2 0-49.3 22.1-49.3 49.3v107.2c0 27.2 22.1 49.3 49.3 49.3h107.2c27.2 0 49.3-22.1 49.3-49.3V151.4c0-27.2-22.1-49.3-49.3-49.3zm36.3 156.5c0 20-16.3 36.3-36.3 36.3H151.4c-20 0-36.3-16.3-36.3-36.3V151.4c0-20 16.3-36.3 36.3-36.3h107.2c20 0 36.3 16.3 36.3 36.3v107.2z"/><path d="M262.5 139.7c-4.4 0-7.9 3.5-7.9 7.9s3.5 7.9 7.9 7.9 7.9-3.5 7.9-7.9c0-4.3-3.5-7.9-7.9-7.9zM205 154.6c-27.8 0-50.4 22.6-50.4 50.4 0 27.8 22.6 50.4 50.4 50.4 27.8 0 50.4-22.6 50.4-50.4 0-27.8-22.6-50.4-50.4-50.4zm0 87.9c-20.7 0-37.5-16.8-37.5-37.5 0-20.6 16.8-37.4 37.5-37.4 20.6 0 37.4 16.8 37.4 37.4 0 20.7-16.8 37.5-37.4 37.5z"/></symbol><symbol viewBox="0 0 512 512" id="youtube" xmlns="http://www.w3.org/2000/svg"><path d="M437 75C388.7 26.6 324.4 0 256 0S123.3 26.6 75 75 0 187.6 0 256s26.6 132.7 75 181c48.4 48.3 112.6 75 181 75s132.7-26.6 181-75c48.4-48.3 75-112.6 75-181s-26.6-132.7-75-181zm-11.3 350.7C380.4 471 320.1 496 256 496s-124.4-25-169.7-70.3C41 380.4 16 320.1 16 256S41 131.6 86.3 86.3C131.6 41 191.9 16 256 16s124.4 25 169.7 70.3C471 131.6 496 191.9 496 256s-25 124.4-70.3 169.7z"/><path d="M430 115c-2.8-3.4-7.8-4-11.3-1.2-3.4 2.8-4 7.8-1.2 11.3 29.9 36.9 46.4 83.4 46.4 131 0 55.6-21.6 107.8-60.9 147.1S311.6 464 256 464c-51.3 0-100.5-18.8-138.7-53-3.3-2.9-8.3-2.7-11.3.6s-2.7 8.4.6 11.3c41.1 36.8 94.1 57 149.3 57 59.8 0 116.1-23.3 158.4-65.6C456.7 372.1 480 315.8 480 256c0-51.2-17.7-101.3-50-141zM48 256c0-114.7 93.3-208 208-208 51.3 0 100.5 18.8 138.7 53 3.3 2.9 8.4 2.7 11.3-.6 2.9-3.3 2.7-8.3-.6-11.3C364.2 52.3 311.2 32 256 32c-59.8 0-116.1 23.3-158.4 65.6C55.3 139.9 32 196.2 32 256c0 51.2 17.7 101.3 50 141 1.6 1.9 3.9 3 6.2 3 1.8 0 3.6-.6 5-1.8 3.4-2.8 4-7.8 1.2-11.3C64.5 350.1 48 303.6 48 256z"/><path d="M393.8 199.2c-.3-2.2-3.2-22.1-12.5-32.2-11.1-12.4-23.8-13.7-29.9-14.3-.5-.1-1-.1-1.5-.2h-.4c-36.8-2.8-92.2-2.9-92.8-2.9h-.1c-.6 0-56 0-92.8 2.9h-.4c-.4.1-.9.1-1.5.2-6.1.6-18.7 1.9-29.9 14.3-9.3 10.1-12.2 30-12.5 32.2v.1c-.1.9-2.7 23.5-2.7 46.4V267c0 23 2.6 45.5 2.7 46.4v.1c.3 2.2 3.2 22.1 12.5 32.2 10.3 11.5 23.4 13.1 30.4 14 1.2.2 2.3.3 3 .4.2 0 .5.1.8.1 21.2 2.2 87.5 2.8 90.4 2.9.6 0 56.1-.1 92.8-2.9h.4c.5-.1 1-.1 1.5-.2 6.1-.6 18.7-2 29.8-14.3 9.3-10.1 12.2-30 12.5-32.2v-.1c.1-.9 2.7-23.5 2.7-46.4v-21.3c0-22.9-2.6-45.5-2.7-46.4.2 0 .2 0 .2-.1zm-13.3 67.9c0 21.4-2.4 43.1-2.6 44.5-.6 4.4-3.4 18-8.4 23.4l-.1.1c-7 7.8-14.6 8.6-19.6 9.1-.6.1-1.2.1-1.7.2-36.1 2.8-90.9 2.9-91.4 2.9-.7 0-67.6-.7-88.5-2.8-1.2-.2-2.4-.4-3.7-.5-6-.8-14.2-1.8-20.5-8.9l-.1-.1c-4.4-4.8-7.5-16.9-8.4-23.4-.2-1.4-2.6-23.1-2.6-44.5v-21.3c0-21.4 2.4-43.1 2.6-44.5.6-4.4 3.4-18 8.4-23.5l.1-.1c7-7.8 14.6-8.6 19.6-9.1.6-.1 1.1-.1 1.6-.2 36.1-2.8 90.8-2.8 91.4-2.8h.1c.5 0 55.3 0 91.4 2.8.5.1 1 .1 1.6.2 5 .5 12.6 1.3 19.6 9.1l.1.1c4.5 4.8 7.5 16.9 8.4 23.5.2 1.4 2.6 23.1 2.6 44.5l.1 21.3z"/><path d="M310.4 249.6L228 200.2c-2.5-1.5-5.5-1.5-8.1-.1-2.5 1.4-4.1 4.1-4.1 7v98.8c0 2.9 1.6 5.5 4.1 7 1.2.7 2.6 1 3.9 1 1.4 0 2.9-.4 4.1-1.1l82.4-49.4c2.4-1.4 3.9-4 3.9-6.9s-1.4-5.5-3.8-6.9zm-78.5 42.1v-70.6l58.8 35.3-58.8 35.3z"/></symbol></svg>